<?xml version="1.0" encoding="iso-8859-1"?>
<!-- Generator: Adobe Illustrator 21.1.0, SVG Export Plug-In . SVG Version: 6.00 Build 0)  -->
<svg version="1.1" xmlns="http://www.w3.org/2000/svg" xmlns:xlink="http://www.w3.org/1999/xlink" x="0px" y="0px"
	 viewBox="0 0 18 13" style="enable-background:new 0 0 18 13;" xml:space="preserve">
<g id="Dashboard">
	<g>
		<path d="M12.536,6.5L9.145,9.108C9.096,9.104,9.048,9.1,9,9.1c-0.711,0-1.286,0.581-1.286,1.3S8.289,11.7,9,11.7
			s1.286-0.581,1.286-1.3c0-0.049-0.004-0.097-0.008-0.146l2.579-3.429L12.536,6.5z"/>
		<path d="M9,0C4.03,0,0,4.075,0,9.1c0,1.398,0.313,2.718,0.868,3.9h1.45C1.7,11.919,1.346,10.701,1.294,9.425h1.278v-0.65H1.294
			c0.048-1.17,0.35-2.295,0.876-3.307l1.105,0.646l0.321-0.565L2.491,4.907c0.297-0.471,0.651-0.918,1.053-1.324
			c0.41-0.41,0.856-0.772,1.33-1.077l0.635,1.109l0.558-0.325L5.432,2.182c0.996-0.528,2.097-0.825,3.246-0.873V2.6h0.643V1.308
			c1.149,0.049,2.25,0.349,3.246,0.873l-0.631,1.109l0.558,0.325l0.635-1.109c0.474,0.305,0.92,0.666,1.33,1.077
			c0.402,0.406,0.751,0.849,1.053,1.324l-1.101,0.642l0.321,0.565l1.105-0.646c0.526,1.012,0.828,2.137,0.876,3.307h-1.286v0.65
			h1.278C16.654,10.701,16.3,11.919,15.682,13h1.45C17.687,11.818,18,10.497,18,9.1C18,4.075,13.97,0,9,0z"/>
	</g>
</g>
<g id="Layer_1">
</g>
</svg>
